<?xml version="1.0" encoding="UTF-8"?>
<svg id="Layer_1" xmlns="http://www.w3.org/2000/svg" version="1.1" viewBox="0 0 90 90">
  <!-- Generator: Adobe Illustrator 30.0.0, SVG Export Plug-In . SVG Version: 2.1.1 Build 123)  -->
  <defs>
    <style>
      .st0 {
        fill: none;
      }

      .st1 {
        fill: #70f;
      }
    </style>
  </defs>
  <rect class="st0" width="90" height="90"/>
  <g>
    <path class="st1" d="M77.06,10.65H13.09c-3.33.23-5.78,2.62-6.09,5.95v44.1c0,2.48,3.01,5.79,5.47,5.79h21.29c-1.18,4.03-7.5,9.96-1.08,12.58l.68.11c7.49-.42,15.54.54,22.97,0,2.95-.21,4.68-2.77,3.48-5.56l-3.56-7.14h21.29c2.49,0,5.43-3.3,5.46-5.79V16.6c-.25-3.22-2.73-5.67-5.93-5.95ZM51.33,13.19h26.04c1.03,0,3.09,2.06,3.09,3.09v40.05h-29.13V13.19ZM9.54,16.29c0-1.04,2.06-3.09,3.09-3.09h36.17v43.14H9.54V16.29ZM57.54,74.78c.25.51.14,1.09-.25,1.49-.14.14-.35.24-.54.33l-23.24.05c-.75-.04-1.23-.62-1.2-1.35,1.2-3.02,3.04-5.78,4.31-8.78l16.6.05,4.31,8.21ZM77.06,63.95H13.25c-2.75-.21-4.05-2.48-3.71-5.08h70.92c.34,2.45-.88,4.65-3.4,5.08Z"/>
    <path class="st1" d="M75.48,37.3l-19.44.04c-1.37.46-1.17,2.38.28,2.51h19.16c1.6-.16,1.6-2.39,0-2.54Z"/>
    <path class="st1" d="M75.48,43.64l-19.44.04c-1.37.46-1.17,2.38.28,2.51h19.16c1.6-.16,1.6-2.39,0-2.54Z"/>
    <path class="st1" d="M75.48,49.99l-19.44.04c-1.37.46-1.17,2.38.28,2.51h19.16c1.6-.16,1.6-2.39,0-2.54Z"/>
    <path class="st1" d="M60.13,29.21c-.29-.97-3.2-3.87-3.26-4.52.37-1.34,3.04-3.59,3.3-4.79.23-1.05-.55-1.83-1.6-1.6-.33.07-.52.3-.75.53-.85.85-2.7,3.45-3.39,4.54-.73,1.15-.82,1.2-.07,2.41.61.98,2.77,3.99,3.53,4.71,1.13,1.07,2.67.19,2.23-1.28Z"/>
    <path class="st1" d="M73.66,24.54c-.3,1.32-3.06,3.7-3.3,4.79-.33,1.47,1.22,2.2,2.34,1.07.6-.61,3.36-4.28,3.71-5,.47-.98.25-1.13-.26-1.94-.62-.99-2.76-3.99-3.53-4.71-.43-.41-.78-.57-1.39-.44-.74.16-1.09,1.04-.84,1.72l3.26,4.52Z"/>
    <path class="st1" d="M65.23,30.05c.61-1.45,2.41-8.57,2.55-10.14.1-1.07-.47-1.86-1.61-1.61-.6.13-.76.61-.95,1.11-1.11,3.01-1.44,6.81-2.47,9.9-.29,1.69,1.79,2.38,2.49.74Z"/>
    <path class="st1" d="M26.24,37.3c-3.39-.36-7.43.24-10.89.04-1.02.21-1.85,1.07-2,2.12.2,3.42-.32,7.25-.02,10.62.12,1.32.95,2.31,2.3,2.45,2.34.25,8.28.26,10.61,0,1.24-.14,2.16-1.06,2.3-2.3.25-2.35.26-8.29,0-10.63-.14-1.24-1.06-2.17-2.3-2.3ZM26,49.99h-10.13v-10.15h10.13v10.15Z"/>
    <path class="st1" d="M43.97,37.3c-3.39-.36-7.43.24-10.89.04-1.02.21-1.85,1.07-2,2.12.2,3.42-.32,7.25-.02,10.62.12,1.32.95,2.31,2.3,2.45,2.34.25,8.28.26,10.61,0,1.24-.14,2.16-1.06,2.3-2.3.25-2.35.26-8.29,0-10.63-.14-1.24-1.06-2.17-2.3-2.3ZM43.73,49.99h-10.13v-10.15h10.13v10.15Z"/>
    <path class="st1" d="M13.34,32.47c.14,1.29,1.15,2.26,2.45,2.31h28.03c1.42-.09,2.33-1.06,2.45-2.46.36-4.14-.29-8.81,0-13.01-.12-1.27-1.16-2.27-2.45-2.31l-28.46.04c-1.08.23-1.91,1.14-2.02,2.26.33,4.19-.44,9.05,0,13.17ZM15.87,19.54h27.86v12.69H15.87v-12.69Z"/>
  </g>
</svg>