<?xml version="1.0" encoding="UTF-8"?>
<svg id="Layer_1" xmlns="http://www.w3.org/2000/svg" version="1.1" viewBox="0 0 90 90">
  <!-- Generator: Adobe Illustrator 30.0.0, SVG Export Plug-In . SVG Version: 2.1.1 Build 123)  -->
  <defs>
    <style>
      .st0 {
        fill: none;
      }

      .st1 {
        fill: #70f;
      }
    </style>
  </defs>
  <rect class="st0" width="90" height="90"/>
  <g>
    <path class="st1" d="M70.23,3.13c2.05.25,4.46,2.03,5.38,3.87,1.15,2.29.94,4.67-.14,6.93,4.03-.11,7.19,2.39,7.53,6.47v42.7c.07,2.86-3.1,6.47-5.97,6.47h-26.28l1.82,8c2.99.13,6.11-.64,8.17,2.07.9,1.19,1.09,2.54.99,4.01.21.21,4.99-.3,5.96.18,1.5.76.85,3.11-.79,3.1H23.15c-1.68.02-2.29-2.34-.79-3.1.96-.49,5.74.03,5.96-.18-.11-1.47.08-2.81.99-4.01,2.05-2.71,5.18-1.94,8.17-2.07l1.82-8H13.01c-2.85,0-6.06-3.61-5.97-6.47.13-14.65-.28-29.35.21-43.97.95-3.44,3.44-4.99,6.91-5.21l43.85-.02.35-.3c2.67-3.3,5.02-9.86,9.75-10.46.49-.06,1.63-.06,2.13,0ZM68.55,6.44c-1.16.18-1.92.92-2.64,1.77l-9.4,14.28c.05.16.19.24.3.36.31.32,4,3.05,4.26,3.12.18.05.28.08.42-.09l10.55-12.86c2.43-2.82.28-7.15-3.48-6.58ZM55.82,17.37H12.85c-.67,0-2.37,1.69-2.37,2.37v32.15h4.83c.57,0,1.36.96,1.4,1.56s-.49,1.72-1.07,1.72h-5.16v8.75c0,.22.83,1.32,1.09,1.53.68.57,1.56.77,2.42.85h61.9c.94-.04,1.97-.28,2.68-.92.28-.25.99-1.32.99-1.63v-8.59H27.58c-.58,0-1.12-1.13-1.07-1.72s.83-1.56,1.4-1.56h51.65V19.74c0-.81-1.59-2.19-2.41-2.33-.7-.12-3.56-.16-4.21-.04-.35.07-.51.34-.74.57l-14.33,17.44c-.19.41.43,2.62.43,3.35,0,3.31-2.3,6.81-5.55,7.73-3.56,1.01-7.14-.71-10.46,1.17-1.08.61-2.03,2.1-3.41,1.01-.73-.57-1.18-3.24-1.34-4.22-1.03-6.4.07-13.13,7.08-15.24,1.24-.37,2.5-.42,3.77-.65l7.44-11.14ZM54.45,25.39c-.29.09-2.59,3.95-3.02,4.49l4.12,3.01,3.51-4.16-4.14-3.19c-.13-.13-.29-.21-.47-.15ZM40.93,44.53c1.33-.56,2.74-1,4.19-1.12,3.08-.26,6.87,1.17,8.97-1.83,1-1.43.97-3.54.4-5.12l-5.86-4.45c-1.9-.22-4.1.43-5.58,1.64-3.09,2.52-2.79,7.34-2.12,10.88ZM40.92,77.58h8.19l-1.9-8.03-4.47.03-1.82,8ZM58.44,83.64c.13-1.44-.14-2.55-1.73-2.77-7.46.39-15.53-.57-22.91-.02-1.89.14-2.36.92-2.2,2.79h26.85Z"/>
    <circle class="st1" cx="21.61" cy="53.58" r="1.65"/>
  </g>
</svg>