<?xml version="1.0" encoding="UTF-8"?>
<svg id="Layer_1" xmlns="http://www.w3.org/2000/svg" version="1.1" viewBox="0 0 90 90">
  <!-- Generator: Adobe Illustrator 30.0.0, SVG Export Plug-In . SVG Version: 2.1.1 Build 123)  -->
  <defs>
    <style>
      .st0 {
        fill: none;
      }

      .st1 {
        fill: #70f;
      }
    </style>
  </defs>
  <rect class="st0" width="90" height="90"/>
  <g>
    <path class="st1" d="M82.76,13.84c-.8-2.34-3.25-3.33-5.54-2.37-.67.28-1.98,1.47-2.43,1.52-.36.04-1.18-.26-1.72-.28-20.2-.7-40.81.54-61.05,0-2.53.12-4.79,2.15-5.01,4.69v44.04c-.21,1.68,2.34,4.68,3.9,4.68h26.63c-.08.37.12,1.51-.02,1.73-.1.16-3,.79-3.63,1.06-2.84,1.18-5.73,3.88-2.86,6.83,4.09,4.21,19.09,4.17,23.21,0,3.36-3.39-.98-6.29-4.01-7.28-.4-.13-2.42-.5-2.49-.61-.14-.22.06-1.36-.02-1.73h26.63c1.46,0,3.95-2.81,3.9-4.37V21.71c1.7-2.57,5.8-4.13,4.52-7.87ZM9.56,17.41c0-.81,1.48-2.15,2.3-2.15h59.69l-14.95,10.57c-1.15,1.11-1.49,2.49-1.18,4.06-.55.2-1.33,1.37-1.68,1.52-.2.09-1.94-.51-2.46-.56-7.18-.62-9.24,6.75-9.77,12.48-.21,2.31.49,2.26-1.19,4.21-6.99,8.12-20.91,4.93-23.81-5.29-3.77-13.29,11.61-23.52,22.21-14.9.91.74,1.96,2.63,3.27,1.51,1.28-1.09-.56-2.6-1.44-3.35-11.08-9.4-28.14-.58-27.18,13.83.95,14.39,19.26,20.76,28.85,9.94.37-.42,1.43-2.09,1.78-2.19,4.34-.2,10.09.79,12.99-3.23.95-1.31,1.67-3.22,1.69-4.84,0-.5-.37-1.52-.13-1.95.06-.1,1.72-1.26,1.83-1.28.43-.07,1.28.34,2.03.29.7-.05,1.39-.37,1.98-.73l11.3-11.2v33.54H9.56V17.41ZM55.68,33.01c.09-.15.93-.84,1.05-.87.38-.1,1.65,1.47,1.64,1.82,0,.22-.96.97-1.2,1.02-1.24.25-2.14-.84-1.49-1.97ZM55.98,39.83c-.17,1.83-1.49,3.52-3.22,4.09-.53.18-2.27.59-2.75.59h-5.96c.29-3.8,1.15-11.22,6.28-11.14.38,0,2.37.41,2.54.65.16.23.18.92.32,1.27.61,1.5,2.54,2.05,2.7,2.38.14.28.12,1.75.08,2.15ZM51.8,71.98c1.74,1.15.94,1.92-.53,2.71-4.1,2.21-13.19,2.21-17.28,0-1.92-1.03-2.07-1.8-.1-2.92.73-.41,3-1.29,3.77-1.32.08,0,.14-.03.21.04,1.8,4.45,7.78,4.31,9.62-.05,1.4.38,3.09.74,4.31,1.54ZM40.08,69.23v-3.1h5.09v3.1c0,.07-.32.74-.4.87-1,1.53-3.28,1.53-4.28,0-.08-.12-.4-.8-.4-.87ZM73.39,63.6H11.7c-1.62-.31-2.36-1.78-2.14-3.35h66.13c.23,1.59-.59,3.18-2.3,3.35ZM80.14,15.98l-17.25,17.25c-.48.43-1.11.44-1.59,0l-3.33-3.98c-.2-.46-.1-.97.23-1.35l20.3-14.19c1.43-.32,2.49,1.07,1.63,2.27Z"/>
    <path class="st1" d="M34.69,32.34c-.82-.59-1.98-3.34-2.98-4.18-.66-.55-1.49-.64-2.32-.46-1.7.35-2.71,3.79-3.94,4.65-1.83,1.27-6.29.5-6.04,3.99.12,1.7,2.83,3.56,3.15,4.8.39,1.51-.45,4.76.36,6,.82,1.26,1.98,1.25,3.27.88.88-.25,3.15-1.36,3.83-1.39,1.02-.05,3.67,1.5,4.98,1.64.67.07,1.53-.25,2-.73,1.6-1.62.09-4.65.62-6.37.28-.89,2.38-2.81,2.92-3.91.48-.97.45-1.85-.22-2.74-1.02-1.36-4.42-1.3-5.62-2.17ZM35.41,39.76c-.95,1.63-.13,4.04-.25,5.87-1.44-.3-3.03-1.26-4.44-1.52-1.74-.32-3.86,1.17-5.57,1.52-.23-1.51.3-3.94,0-5.33-.19-.86-2.66-3.07-3.02-4.13.07-.33,4.38-1.18,5.01-1.67.87-.67,2-3.19,2.78-4.14.26-.06.32.09.47.24.85.87,1.94,3.38,2.87,3.97.72.45,4.76,1.31,4.92,1.52-.67,1.29-2.06,2.46-2.77,3.67Z"/>
  </g>
</svg>